<svg width="89" height="132" viewBox="0 0 89 132" fill="none" xmlns="http://www.w3.org/2000/svg">
<path d="M88.1 0C88.1 0 88.1 68.8 88.1 87.9C88.1 105.8 74.7 131.7 42.1 131.7C19 131.7 0 112.6 0 87.9C0 63.2 19 44.1 42.1 44.1C56.3 44.1 66.9 50.4 73.6 60.6V0H88.1ZM73.6 87.9C73.6 70.9 60.8 58.1 44 58.1C27.3 58.1 14.5 70.9 14.5 87.9C14.5 104.9 27.3 117.7 44 117.7C60.8 117.7 73.6 104.9 73.6 87.9Z" fill="#3C3C3C"></path>
<path d="M73.6 87.9C73.6 70.9 60.8 58.1 44 58.1C27.3 58.1 14.5 70.9 14.5 87.9C14.5 104.9 27.3 117.7 44 117.7C60.8 117.7 73.6 104.9 73.6 87.9Z" fill="#EF463C"></path>
</svg>