<svg width="175" height="175" viewBox="0 0 175 175" fill="none" xmlns="http://www.w3.org/2000/svg">
<path d="M156.24 171.43H42.24C40.1183 171.43 38.0834 170.587 36.5831 169.087C35.0828 167.587 34.24 165.552 34.24 163.43V128C34.24 125.878 35.0828 123.843 36.5831 122.343C38.0834 120.843 40.1183 120 42.24 120C44.3617 120 46.3966 120.843 47.8968 122.343C49.3971 123.843 50.24 125.878 50.24 128V155.43H148.24V52.8999L114.91 19.5699H50.28V77.9999C50.28 80.1217 49.4371 82.1565 47.9368 83.6568C46.4366 85.1571 44.4017 85.9999 42.28 85.9999C40.1583 85.9999 38.1234 85.1571 36.6231 83.6568C35.1228 82.1565 34.28 80.1217 34.28 77.9999V11.5699C34.28 9.44821 35.1228 7.41338 36.6231 5.91309C38.1234 4.4128 40.1583 3.56995 42.28 3.56995H118.22C119.272 3.57043 120.313 3.77824 121.284 4.18147C122.255 4.58471 123.137 5.17547 123.88 5.91995L161.88 43.9199C162.623 44.6634 163.212 45.546 163.613 46.5172C164.015 47.4883 164.221 48.5291 164.22 49.5799V163.43C164.22 165.548 163.38 167.58 161.884 169.08C160.388 170.579 158.358 171.425 156.24 171.43Z" fill="#C42828"></path>
<path d="M156.24 57.59H118.24C116.118 57.59 114.083 56.7471 112.583 55.2468C111.083 53.7465 110.24 51.7117 110.24 49.59V11.59C110.24 9.46823 111.083 7.4334 112.583 5.93311C114.083 4.43282 116.118 3.58997 118.24 3.58997C120.362 3.58997 122.397 4.43282 123.897 5.93311C125.397 7.4334 126.24 9.46823 126.24 11.59V41.59H156.24C158.362 41.59 160.397 42.4328 161.897 43.9331C163.397 45.4334 164.24 47.4682 164.24 49.59C164.24 51.7117 163.397 53.7465 161.897 55.2468C160.397 56.7471 158.362 57.59 156.24 57.59Z" fill="#C42828"></path>
<path d="M99.76 136H18.76C16.6383 136 14.6034 135.157 13.1032 133.657C11.6029 132.157 10.76 130.122 10.76 128V78C10.76 75.8783 11.6029 73.8434 13.1032 72.3431C14.6034 70.8429 16.6383 70 18.76 70H99.76C101.882 70 103.917 70.8429 105.417 72.3431C106.917 73.8434 107.76 75.8783 107.76 78V128C107.76 130.122 106.917 132.157 105.417 133.657C103.917 135.157 101.882 136 99.76 136ZM26.76 120H91.76V86H26.76V120Z" fill="#EF463C"></path>
<path d="M44.0599 107.76L40.8999 113.34H33.6699L40.1599 103.34L33.9999 94.23H41.3599L44.2399 99.23L46.9799 94.23H54.1599L48.1599 103.3L54.8599 113.3H47.3399L44.0599 107.76Z" fill="#EF463C"></path>
<path d="M56.1899 94.23H62.3499V107.81H68.3499V113.34H56.1899V94.23Z" fill="#EF463C"></path>
<path d="M76.2201 113.88C74.7764 113.882 73.3451 113.614 72.0001 113.09C71.3557 112.839 70.7335 112.535 70.1401 112.18C69.5802 111.842 69.0573 111.447 68.5801 111L72.3001 106.75C72.787 107.276 73.3623 107.713 74.0001 108.04C74.6742 108.411 75.4306 108.607 76.2001 108.61C76.5203 108.616 76.8378 108.551 77.1301 108.42C77.2664 108.364 77.3813 108.265 77.4586 108.14C77.5358 108.014 77.5713 107.867 77.5601 107.72C77.5644 107.556 77.5153 107.394 77.4201 107.26C77.2798 107.099 77.1101 106.967 76.9201 106.87C76.5992 106.694 76.2648 106.543 75.9201 106.42L74.3401 105.85C73.7315 105.638 73.1398 105.381 72.5701 105.08C72.0185 104.789 71.513 104.419 71.0701 103.98C70.6397 103.533 70.3001 103.006 70.0701 102.43C69.7976 101.736 69.6683 100.995 69.6901 100.25C69.6548 99.2672 69.8616 98.2908 70.2923 97.4067C70.723 96.5226 71.3644 95.758 72.1601 95.18C72.8862 94.6394 73.707 94.2393 74.5801 94C75.4587 93.772 76.3623 93.6544 77.2701 93.65C78.5253 93.6591 79.7674 93.9069 80.9301 94.38C82.1505 94.8525 83.2627 95.5668 84.2001 96.48L80.4001 100.56C80.0058 100.032 79.4871 99.6094 78.8901 99.33C78.38 99.1052 77.8275 98.9927 77.2701 99C76.9018 98.9848 76.5352 99.0567 76.2001 99.21C76.0716 99.2638 75.9631 99.3562 75.8896 99.4745C75.8162 99.5928 75.7814 99.731 75.7901 99.87C75.7884 100.008 75.8274 100.143 75.9021 100.258C75.9768 100.374 76.0839 100.465 76.2101 100.52C76.6562 100.726 77.1136 100.906 77.5801 101.06C78.2301 101.27 78.9201 101.52 79.5801 101.81C80.2935 102.093 80.9661 102.47 81.5801 102.93C82.1886 103.387 82.6988 103.962 83.0801 104.62C83.4995 105.377 83.7036 106.235 83.6701 107.1C83.693 108.137 83.4702 109.165 83.0201 110.1C82.6062 110.928 82.0197 111.658 81.3001 112.24C80.5844 112.806 79.7709 113.237 78.9001 113.51C78.0305 113.768 77.127 113.892 76.2201 113.88Z" fill="#EF463C"></path>
</svg>