<svg width="175" height="175" viewBox="0 0 175 175" fill="none" xmlns="http://www.w3.org/2000/svg">
<path d="M87.5 109.46C83.08 109.46 79.5 105.88 79.5 101.46V73.54C79.5 69.12 83.08 65.54 87.5 65.54C91.92 65.54 95.5 69.12 95.5 73.54V101.46C95.5 105.88 91.92 109.46 87.5 109.46Z" fill="#C42828"></path>
<path d="M101.46 95.5H73.54C69.12 95.5 65.54 91.92 65.54 87.5C65.54 83.08 69.12 79.5 73.54 79.5H101.46C105.88 79.5 109.46 83.08 109.46 87.5C109.46 91.92 105.88 95.5 101.46 95.5Z" fill="#C42828"></path>
<path d="M87.5 170.97C41.47 170.97 4.03003 133.53 4.03003 87.5C4.03003 41.47 41.47 4.03003 87.5 4.03003C133.53 4.03003 170.97 41.47 170.97 87.5C170.97 133.53 133.53 170.97 87.5 170.97ZM87.5 20.03C50.3 20.03 20.03 50.3 20.03 87.5C20.03 124.7 50.3 154.97 87.5 154.97C124.7 154.97 154.97 124.7 154.97 87.5C154.97 50.3 124.7 20.03 87.5 20.03Z" fill="#C42828"></path>
<path d="M87.5 57.76C83.08 57.76 79.5 54.18 79.5 49.76V12.03C79.5 7.61003 83.08 4.03003 87.5 4.03003C91.92 4.03003 95.5 7.61003 95.5 12.03V49.76C95.5 54.18 91.92 57.76 87.5 57.76Z" fill="#EF463C"></path>
<path d="M87.5 170.97C83.08 170.97 79.5 167.39 79.5 162.97V125.24C79.5 120.82 83.08 117.24 87.5 117.24C91.92 117.24 95.5 120.82 95.5 125.24V162.97C95.5 167.39 91.92 170.97 87.5 170.97Z" fill="#EF463C"></path>
<path d="M50.78 95.5H12.03C7.61003 95.5 4.03003 91.92 4.03003 87.5C4.03003 83.08 7.61003 79.5 12.03 79.5H50.78C55.2 79.5 58.78 83.08 58.78 87.5C58.78 91.92 55.2 95.5 50.78 95.5Z" fill="#EF463C"></path>
<path d="M162.97 95.5H125.23C120.81 95.5 117.23 91.92 117.23 87.5C117.23 83.08 120.81 79.5 125.23 79.5H162.97C167.39 79.5 170.97 83.08 170.97 87.5C170.97 91.92 167.39 95.5 162.97 95.5Z" fill="#EF463C"></path>
</svg>