<svg width="175" height="175" viewBox="0 0 175 175" fill="none" xmlns="http://www.w3.org/2000/svg">
<path d="M163.49 85.55C161.368 85.55 159.333 84.7072 157.833 83.2069C156.333 81.7066 155.49 79.6717 155.49 77.55V29.07H19.49V77.55C19.49 79.6717 18.6471 81.7066 17.1468 83.2069C15.6466 84.7072 13.6117 85.55 11.49 85.55C9.36826 85.55 7.33343 84.7072 5.83314 83.2069C4.33284 81.7066 3.48999 79.6717 3.48999 77.55V21.07C3.48999 18.9483 4.33284 16.9134 5.83314 15.4132C7.33343 13.9129 9.36826 13.07 11.49 13.07H163.49C165.612 13.07 167.647 13.9129 169.147 15.4132C170.647 16.9134 171.49 18.9483 171.49 21.07V77.55C171.49 79.6717 170.647 81.7066 169.147 83.2069C167.647 84.7072 165.612 85.55 163.49 85.55Z" fill="#C42828"></path>
<path d="M87.49 161.93C85.3683 161.93 83.3334 161.087 81.8331 159.587C80.3328 158.087 79.49 156.052 79.49 153.93V60.07C79.49 57.9483 80.3328 55.9134 81.8331 54.4132C83.3334 52.9129 85.3683 52.07 87.49 52.07C89.6117 52.07 91.6466 52.9129 93.1468 54.4132C94.6471 55.9134 95.49 57.9483 95.49 60.07V153.93C95.49 156.052 94.6471 158.087 93.1468 159.587C91.6466 161.087 89.6117 161.93 87.49 161.93Z" fill="#EF463C"></path>
<path d="M49.7599 105.63C48.1829 105.625 46.6424 105.155 45.3321 104.277C44.0217 103.4 43 102.155 42.3952 100.698C41.7904 99.2417 41.6295 97.639 41.9328 96.0914C42.2361 94.5438 42.9901 93.1204 44.0999 92L82.1999 53.9C82.9299 53.1082 83.8124 52.472 84.7942 52.0295C85.7761 51.587 86.8372 51.3472 87.9139 51.3247C88.9907 51.3021 90.0609 51.4972 91.0604 51.8983C92.0599 52.2993 92.9682 52.8981 93.7307 53.6586C94.4933 54.4191 95.0944 55.3258 95.4981 56.3242C95.9018 57.3227 96.0997 58.3924 96.0801 59.4692C96.0604 60.546 95.8235 61.6077 95.3835 62.5907C94.9436 63.5738 94.3097 64.4579 93.5199 65.19L55.4199 103.29C54.6764 104.033 53.7939 104.622 52.8227 105.023C51.8515 105.425 50.8108 105.631 49.7599 105.63Z" fill="#C42828"></path>
<path d="M125.86 105.63C124.807 105.631 123.764 105.424 122.791 105.02C121.818 104.617 120.934 104.026 120.19 103.28L82.1899 65.18C80.6915 63.6776 79.8512 61.6414 79.854 59.5194C79.8568 57.3974 80.7025 55.3635 82.2049 53.865C83.7074 52.3665 85.7436 51.5263 87.8655 51.5291C89.9875 51.5319 92.0214 52.3776 93.5199 53.88L131.52 91.98C132.637 93.0994 133.397 94.5245 133.704 96.0755C134.011 97.6265 133.852 99.2337 133.246 100.694C132.64 102.155 131.616 103.403 130.301 104.282C128.986 105.16 127.441 105.629 125.86 105.63Z" fill="#C42828"></path>
</svg>